<svg width="1275" height="1169" viewBox="0 0 1275 1169" fill="none" xmlns="http://www.w3.org/2000/svg">
<path d="M1009.49 303.467C1017.25 303.761 1024.87 305.293 1032.12 307.919C1041.78 311.42 1050.73 316.888 1058.28 323.978C1069.84 334.832 1077.93 348.898 1081.63 364.021C1082.78 368.748 1083.51 373.583 1083.78 378.502C1084.4 390.46 1082.4 402.433 1077.96 413.499C1073.61 424.272 1067.12 433.965 1059.13 442.037C1050.88 450.383 1041.11 456.933 1030.55 461.464C1019.99 465.995 1008.63 468.502 997.16 468.739C989.018 468.85 981.173 467.444 973.951 464.847C966.827 462.254 960.555 458.889 954.981 455.284C857.072 397.637 770.862 353.573 644.945 346.057C518.838 348.963 431.094 389.844 331.115 443.869C325.411 447.268 318.97 450.401 311.755 452.731C304.441 455.062 296.55 456.18 288.419 455.771C276.968 455.115 265.749 452.195 255.365 447.282C244.98 442.368 235.465 435.464 227.523 426.821C219.839 418.462 213.719 408.539 209.772 397.615C205.747 386.393 204.187 374.356 205.246 362.428C205.704 357.523 206.607 352.717 207.936 348.036C212.189 333.057 220.8 319.296 232.752 308.874C240.564 302.066 249.662 296.928 259.449 293.782C269.234 290.636 279.675 289.494 290.058 290.589C299.072 291.65 307.668 294.453 315.376 298.653C323.083 302.852 329.886 308.431 335.454 315.075C341.311 322.066 345.561 330.132 347.989 338.58C350.416 347.029 351.035 355.846 349.836 364.454C348.688 372.013 346.097 379.068 342.419 385.267C338.74 391.467 333.993 396.831 328.537 401.116C322.472 405.887 315.604 409.073 308.593 410.727C301.582 412.381 294.431 412.523 287.678 411.199C281.745 409.958 276.404 407.552 271.84 404.45C267.275 401.347 263.466 397.551 260.547 393.365C256.969 388.263 254.944 382.617 254.196 377.194C253.446 371.77 253.954 366.542 255.429 361.922C256.834 357.714 259.071 354.251 261.561 351.536C264.049 348.821 266.809 346.858 269.512 345.506C271.328 344.577 273.181 343.972 274.915 343.61C276.65 343.248 278.29 343.139 279.769 343.224C281.359 343.325 282.707 343.64 283.84 344.058C284.973 344.477 285.872 344.976 286.569 345.486C287.964 346.504 288.517 347.497 288.515 348.181C288.512 348.866 287.934 349.253 286.922 349.53C285.908 349.807 284.449 349.969 282.723 350.498C282.042 350.707 281.322 350.965 280.617 351.315C279.068 352.01 277.361 353.212 275.657 354.882C274.367 356.176 273.132 357.771 272.148 359.615C271.165 361.459 270.424 363.572 270.23 365.707C269.873 368.182 270.155 370.911 271.079 373.703C272.004 376.496 273.561 379.322 275.684 381.625C277.568 383.68 279.943 385.534 282.617 386.93C285.291 388.326 288.302 389.283 291.31 389.559C294.8 390.003 298.576 389.556 302.31 388.288C306.044 387.02 309.713 384.945 312.732 382.208C315.568 379.643 318.039 376.396 319.892 372.791C321.743 369.186 323.002 365.224 323.337 361.216C323.85 356.653 323.197 351.718 321.557 346.981C319.919 342.243 317.293 337.661 313.866 333.872C310.568 330.218 306.415 327.093 301.824 324.769C297.233 322.444 292.191 320.945 287.126 320.557C281.417 319.982 275.344 320.813 269.552 322.848C263.759 324.883 258.245 328.14 253.65 332.295C249.124 336.38 245.264 341.427 242.448 347.053C239.632 352.679 237.855 358.848 237.411 365.012C236.835 372.205 237.848 379.669 240.338 386.536C242.728 393.206 246.597 399.514 251.495 404.934C261.371 415.857 275.993 423.182 290.574 424.176C294.513 424.511 298.758 424.005 302.905 422.834C307.137 421.666 311.544 419.577 316.172 417.091C325.993 411.75 336.209 404.181 348.416 397.541C361.524 390.518 374.43 381.794 388.199 373.661C464.639 327.766 515.673 282.889 646.07 285.275C776.471 287.661 825.86 334.375 900.536 383.035C913.993 391.666 926.567 400.856 939.407 408.353C951.357 415.436 961.286 423.374 970.903 429.071C975.436 431.724 979.764 433.973 983.949 435.294C988.049 436.616 992.225 437.277 996.174 437.086C1010.78 436.627 1025.71 429.843 1035.99 419.287C1041.08 414.05 1045.18 407.888 1047.82 401.31C1050.56 394.539 1051.85 387.116 1051.54 379.907C1051.33 373.732 1049.73 367.501 1047.13 361.776C1044.52 356.051 1040.9 350.867 1036.53 346.619C1032.09 342.299 1026.65 338.841 1020.94 336.595C1015.23 334.35 1009.24 333.299 1003.51 333.664C998.434 333.866 993.339 335.18 988.665 337.335C983.99 339.49 979.725 342.46 976.293 345.992C972.728 349.653 969.934 354.136 968.121 358.81C966.307 363.485 965.472 368.392 965.815 372.971C966.001 376.988 967.112 380.994 968.829 384.664C970.547 388.335 972.895 391.669 975.634 394.337C978.549 397.183 982.092 399.389 985.777 400.792C989.462 402.196 993.265 402.782 996.769 402.466C999.786 402.301 1002.83 401.454 1005.55 400.157C1008.28 398.86 1010.67 397.093 1012.63 395.109C1014.84 392.884 1016.55 390.118 1017.57 387.361C1018.6 384.604 1018.98 381.888 1018.72 379.402C1018.6 377.26 1017.94 375.122 1017.03 373.243C1016.11 371.365 1014.94 369.726 1013.7 368.384C1012.06 366.654 1010.4 365.391 1008.87 364.639C1008.18 364.263 1007.47 363.979 1006.8 363.746C1005.09 363.153 1003.59 362.938 1002.59 362.623C1001.59 362.31 1001.03 361.902 1001.05 361.218C1001.07 360.534 1001.71 359.563 1003.14 358.596C1003.86 358.113 1004.77 357.646 1005.92 357.269C1007.07 356.893 1008.43 356.628 1010.02 356.584C1011.5 356.555 1013.14 356.723 1014.86 357.148C1016.58 357.573 1018.41 358.245 1020.19 359.24C1022.84 360.69 1025.52 362.752 1027.91 365.557C1030.3 368.361 1032.36 371.902 1033.6 376.159C1034.91 380.831 1035.27 386.075 1034.32 391.467C1033.37 396.86 1031.14 402.428 1027.37 407.395C1024.3 411.471 1020.35 415.126 1015.67 418.059C1011 420.992 1005.57 423.201 999.597 424.225C992.8 425.3 985.659 424.897 978.714 422.988C971.769 421.079 965.023 417.643 959.14 412.654C953.847 408.172 949.301 402.639 945.854 396.308C942.408 389.978 940.081 382.833 939.214 375.238C938.335 366.591 939.281 357.803 942.02 349.449C944.759 341.094 949.258 333.188 955.371 326.417C961.181 319.98 968.233 314.655 976.093 310.742C983.951 306.827 992.644 304.34 1001.69 303.61C1004.3 303.43 1006.9 303.369 1009.49 303.467L1009.49 303.467Z" fill="black"/>
<path d="M3.00582 835C68.1728 875.905 167.594 902 279.003 902C390.41 902 489.832 875.905 555 835H3H3.00582Z" fill="black"/>
<path d="M555 835L279 439" stroke="black" stroke-width="5.4"/>
<path d="M3 835L276 454" stroke="black" stroke-width="5.4"/>
<path d="M720.006 835C785.173 875.905 884.594 902 996.003 902C1107.41 902 1206.83 875.905 1272 835H720H720.006Z" fill="black"/>
<path d="M1272 835L996 439" stroke="black" stroke-width="5.4"/>
<path d="M720 835L993 454" stroke="black" stroke-width="5.4"/>
<path d="M645.606 160C655.592 186.053 691.213 241.201 691.213 266.38C691.213 291.561 670.795 305.893 645.606 305.893C620.418 305.893 600 291.56 600 266.38C600 241.201 635.62 186.053 645.606 160Z" fill="black"/>
<path d="M649.708 323.032H643.194C631.2 323.032 621.476 343.982 621.476 369.824V440.009C621.476 465.851 631.2 486.8 643.194 486.8H649.708C661.703 486.8 671.426 465.851 671.426 440.009V369.824C671.426 343.982 661.703 323.032 649.708 323.032Z" fill="black"/>
<path d="M649.718 438.531H643.202C631.171 438.531 621.484 449.355 621.484 462.8V1025.82C621.484 1039.26 631.17 1050.08 643.202 1050.08H649.718C661.749 1050.08 671.435 1039.26 671.435 1025.82V462.8C671.435 449.355 661.75 438.531 649.718 438.531Z" fill="black"/>
<path d="M646.449 999.326C701.15 1056.68 752.907 1124.78 895.249 1134.34C901.391 1143.44 895.249 1168.06 895.249 1168.06H397.664C397.664 1168.06 391.522 1143.45 397.664 1134.34C540.001 1124.78 591.751 1056.68 646.464 999.326H646.449Z" fill="black"/>
</svg>
