<svg width="1275" height="1069" viewBox="0 0 1275 1069" fill="none" xmlns="http://www.w3.org/2000/svg">
<path d="M260.096 316.201C252.774 318.81 245.97 322.554 239.843 327.232C231.675 333.469 224.776 341.369 219.694 350.397C211.924 364.217 208.418 380.062 209.427 395.598C209.743 400.453 210.501 405.283 211.712 410.058C214.709 421.651 220.211 432.472 227.764 441.698C235.143 450.672 244.234 457.975 254.275 463.281C264.654 468.768 275.934 472.09 287.366 473.247C298.799 474.403 310.394 473.387 321.405 470.175C329.205 467.84 336.267 464.148 342.379 459.505C348.398 454.896 353.373 449.805 357.61 444.694C433.733 360.347 502.768 292.464 620.64 247.545C741.818 212.511 837.781 225.207 949.358 246.774C955.819 248.307 962.903 249.364 970.484 249.425C978.161 249.456 986.024 248.156 993.658 245.329C1004.39 241.269 1014.21 235.121 1022.65 227.32C1031.08 219.519 1038.09 210.08 1043.08 199.454C1047.9 189.176 1050.76 177.875 1051.25 166.27C1051.73 154.357 1049.61 142.406 1045.02 131.344C1043.11 126.802 1040.81 122.488 1038.14 118.421C1029.59 105.405 1017.25 94.8593 1002.73 88.4998C993.233 84.3464 983.012 82.1723 972.733 82.1052C962.455 82.0378 952.152 84.0781 942.574 88.236C934.293 91.9503 926.933 97.2013 920.839 103.519C914.745 109.836 909.927 117.197 906.607 125.205C903.115 133.63 901.479 142.599 901.696 151.386C901.913 160.174 903.965 168.771 907.69 176.625C911.052 183.492 915.638 189.445 921.006 194.256C926.374 199.068 932.511 202.762 939.001 205.215C946.217 207.948 953.725 208.928 960.909 208.405C968.093 207.88 974.957 205.872 981.003 202.585C986.291 199.622 990.665 195.726 994.089 191.398C997.514 187.069 1000.01 182.306 1001.54 177.437C1003.42 171.497 1003.66 165.504 1002.75 160.106C1001.84 154.707 999.788 149.871 996.996 145.906C994.393 142.313 991.221 139.68 988.032 137.836C984.844 135.992 981.623 134.946 978.64 134.467C976.628 134.125 974.678 134.103 972.916 134.278C971.152 134.453 969.555 134.841 968.17 135.365C966.684 135.938 965.492 136.642 964.536 137.381C963.581 138.12 962.873 138.866 962.36 139.561C961.335 140.951 961.105 142.064 961.313 142.716C961.52 143.368 962.187 143.565 963.236 143.525C964.286 143.486 965.727 143.202 967.533 143.19C968.245 143.185 969.009 143.215 969.786 143.338C971.473 143.537 973.461 144.172 975.588 145.254C977.206 146.102 978.863 147.253 980.354 148.717C981.845 150.182 983.185 151.976 984.01 153.954C985.092 156.208 985.642 158.896 985.597 161.837C985.553 164.779 984.914 167.942 983.579 170.775C982.398 173.3 980.688 175.781 978.555 177.914C976.423 180.048 973.838 181.864 971.05 183.029C967.854 184.499 964.118 185.204 960.176 185.113C956.233 185.024 952.111 184.144 948.41 182.439C944.935 180.842 941.605 178.485 938.757 175.601C935.91 172.717 933.521 169.314 932 165.591C930.143 161.391 929.286 156.488 929.43 151.477C929.573 146.466 930.704 141.307 932.837 136.665C934.888 132.19 937.913 127.964 941.596 124.371C945.279 120.777 949.64 117.835 954.356 115.946C959.63 113.686 965.673 112.659 971.808 112.863C977.945 113.068 984.181 114.522 989.811 117.108C995.354 119.649 1000.55 123.307 1004.92 127.83C1009.3 132.352 1012.84 137.705 1015.11 143.452C1017.82 150.141 1019.09 157.566 1018.77 164.864C1018.49 171.943 1016.69 179.122 1013.64 185.76C1007.5 199.141 995.743 210.514 982.13 215.833C978.473 217.334 974.272 218.123 969.965 218.249C965.577 218.404 960.747 217.732 955.586 216.748C944.616 214.597 932.6 210.439 918.964 207.763C904.353 204.993 889.426 200.54 873.852 196.909C787.168 176.041 725.029 148.528 601.344 189.896C477.657 231.266 444.544 290.637 387.89 359.447C377.64 371.715 368.399 384.252 358.398 395.253C349.121 405.593 342.028 416.143 334.561 424.46C331.032 428.351 327.578 431.794 323.981 434.309C320.466 436.799 316.68 438.681 312.856 439.683C298.784 443.624 282.504 441.628 269.538 434.639C263.107 431.17 257.347 426.52 252.861 421.035C248.214 415.398 244.76 408.703 242.893 401.733C241.246 395.777 240.9 389.355 241.669 383.112C242.439 376.869 244.34 370.838 247.237 365.475C250.176 360.023 254.326 355.094 259.103 351.239C263.881 347.384 269.28 344.585 274.852 343.217C279.755 341.889 285.01 341.614 290.115 342.269C295.22 342.923 300.18 344.478 304.513 346.818C309.011 349.243 313.021 352.682 316.152 356.598C319.284 360.514 321.551 364.944 322.597 369.416C323.624 373.304 323.764 377.459 323.227 381.475C322.689 385.492 321.448 389.376 319.635 392.742C317.707 396.331 314.989 399.498 311.894 401.942C308.799 404.385 305.346 406.085 301.909 406.834C298.982 407.581 295.823 407.685 292.836 407.265C289.848 406.844 287.034 405.876 284.57 404.571C281.798 403.11 279.338 400.983 277.532 398.661C275.726 396.339 274.547 393.862 274.054 391.412C273.521 389.333 273.512 387.095 273.82 385.029C274.13 382.962 274.76 381.047 275.542 379.395C276.589 377.252 277.794 375.549 279.021 374.376C279.567 373.81 280.161 373.325 280.732 372.901C282.182 371.824 283.548 371.17 284.409 370.569C285.272 369.97 285.687 369.412 285.459 368.766C285.232 368.121 284.333 367.386 282.678 366.892C281.849 366.646 280.835 366.476 279.627 366.46C278.419 366.445 277.043 366.599 275.512 367.035C274.09 367.451 272.581 368.102 271.068 369.022C269.554 369.943 268.01 371.133 266.61 372.616C264.516 374.794 262.573 377.567 261.137 380.958C259.7 384.349 258.796 388.345 258.882 392.78C259.04 397.627 260.267 402.739 262.79 407.598C265.313 412.458 269.112 417.101 274.192 420.71C278.345 423.678 283.206 425.981 288.548 427.377C293.889 428.774 299.727 429.254 305.735 428.44C312.541 427.427 319.233 424.902 325.286 420.999C331.339 417.096 336.745 411.796 340.862 405.273C344.567 399.41 347.245 392.768 348.636 385.695C350.026 378.623 350.104 371.11 348.654 363.604C346.9 355.091 343.363 346.991 338.245 339.842C333.128 332.692 326.466 326.499 318.604 321.872C311.131 317.473 302.807 314.507 294.136 313.13C285.466 311.751 276.427 311.984 267.577 314C265.039 314.61 262.539 315.331 260.097 316.201L260.096 316.201Z" fill="black"/>
<path d="M1271.99 618C1206.83 658.905 1107.41 685 995.997 685C884.59 685 785.168 658.905 720 618H1272H1271.99Z" fill="black"/>
<path d="M720 618L996 222" stroke="black" stroke-width="5.4"/>
<path d="M1272 618L999 237" stroke="black" stroke-width="5.4"/>
<path d="M554.994 843C489.827 883.905 390.406 910 278.997 910C167.59 910 68.1677 883.905 3 843H555H554.994Z" fill="black"/>
<path d="M3 843L279 447" stroke="black" stroke-width="5.4"/>
<path d="M555 843L282 462" stroke="black" stroke-width="5.4"/>
<path d="M629.394 60C619.408 86.0527 583.787 141.201 583.787 166.38C583.787 191.561 604.205 205.893 629.394 205.893C654.582 205.893 675 191.56 675 166.38C675 141.201 639.38 86.0527 629.394 60Z" fill="black"/>
<path d="M625.292 223.032H631.806C643.8 223.032 653.524 243.982 653.524 269.824V340.009C653.524 365.851 643.8 386.8 631.806 386.8H625.292C613.297 386.8 603.574 365.851 603.574 340.009V269.824C603.574 243.982 613.297 223.032 625.292 223.032Z" fill="black"/>
<path d="M625.282 338.531H631.798C643.829 338.531 653.516 349.355 653.516 362.8V925.815C653.516 939.26 643.83 950.083 631.798 950.083H625.282C613.251 950.083 603.565 939.26 603.565 925.815V362.8C603.565 349.355 613.25 338.531 625.282 338.531Z" fill="black"/>
<path d="M628.551 899.326C573.85 956.677 522.093 1024.78 379.751 1034.34C373.609 1043.44 379.751 1068.06 379.751 1068.06H877.336C877.336 1068.06 883.478 1043.45 877.336 1034.34C734.999 1024.78 683.249 956.677 628.536 899.326H628.551Z" fill="black"/>
</svg>
