<svg width="1275" height="1069" viewBox="0 0 1275 1069" fill="none" xmlns="http://www.w3.org/2000/svg">
<path d="M1014.9 316.201C1022.23 318.81 1029.03 322.554 1035.16 327.232C1043.33 333.469 1050.22 341.369 1055.31 350.397C1063.08 364.217 1066.58 380.062 1065.57 395.598C1065.26 400.453 1064.5 405.283 1063.29 410.058C1060.29 421.651 1054.79 432.472 1047.24 441.698C1039.86 450.672 1030.77 457.975 1020.73 463.281C1010.35 468.768 999.066 472.09 987.634 473.247C976.201 474.403 964.606 473.387 953.595 470.175C945.795 467.84 938.733 464.148 932.621 459.505C926.602 454.896 921.627 449.805 917.39 444.694C841.267 360.347 772.232 292.464 654.36 247.545C533.182 212.511 437.219 225.207 325.642 246.774C319.181 248.307 312.097 249.364 304.516 249.425C296.839 249.456 288.976 248.156 281.342 245.329C270.614 241.269 260.786 235.121 252.353 227.32C243.919 219.519 236.911 210.08 231.925 199.454C227.1 189.176 224.237 177.875 223.747 166.27C223.271 154.357 225.391 142.406 229.978 131.344C231.885 126.802 234.188 122.488 236.859 118.421C245.407 105.405 257.747 94.8593 272.274 88.4998C281.767 84.3464 291.988 82.1723 302.267 82.1052C312.545 82.0378 322.848 84.0781 332.426 88.236C340.707 91.9503 348.067 97.2013 354.161 103.519C360.255 109.836 365.073 117.197 368.393 125.205C371.885 133.63 373.521 142.599 373.304 151.386C373.087 160.174 371.035 168.771 367.31 176.625C363.948 183.492 359.362 189.445 353.994 194.256C348.626 199.068 342.489 202.762 335.999 205.215C328.783 207.948 321.275 208.928 314.091 208.405C306.907 207.88 300.043 205.872 293.997 202.585C288.709 199.622 284.335 195.726 280.911 191.398C277.486 187.069 274.99 182.306 273.461 177.437C271.576 171.497 271.338 165.504 272.249 160.106C273.16 154.707 275.212 149.871 278.004 145.906C280.607 142.313 283.779 139.68 286.968 137.836C290.156 135.992 293.377 134.946 296.36 134.467C298.372 134.125 300.322 134.103 302.084 134.278C303.848 134.453 305.445 134.841 306.83 135.365C308.316 135.938 309.508 136.642 310.464 137.381C311.419 138.12 312.127 138.866 312.64 139.561C313.665 140.951 313.895 142.064 313.687 142.716C313.48 143.368 312.813 143.565 311.764 143.525C310.714 143.486 309.273 143.202 307.467 143.19C306.755 143.185 305.991 143.215 305.214 143.338C303.527 143.537 301.539 144.172 299.412 145.254C297.794 146.102 296.137 147.253 294.646 148.717C293.155 150.182 291.815 151.976 290.99 153.954C289.908 156.208 289.358 158.896 289.403 161.837C289.447 164.779 290.086 167.942 291.421 170.775C292.602 173.3 294.312 175.781 296.445 177.914C298.577 180.048 301.162 181.864 303.95 183.029C307.146 184.499 310.882 185.204 314.824 185.113C318.767 185.024 322.889 184.144 326.59 182.439C330.065 180.842 333.395 178.485 336.243 175.601C339.09 172.717 341.479 169.314 343 165.591C344.857 161.391 345.714 156.488 345.57 151.477C345.427 146.466 344.296 141.307 342.163 136.665C340.112 132.19 337.087 127.964 333.404 124.371C329.721 120.777 325.36 117.835 320.644 115.946C315.37 113.686 309.327 112.659 303.192 112.863C297.055 113.068 290.819 114.522 285.189 117.108C279.646 119.649 274.451 123.307 270.077 127.83C265.704 132.352 262.16 137.705 259.889 143.452C257.183 150.141 255.911 157.566 256.228 164.864C256.509 171.943 258.309 179.122 261.356 185.76C267.503 199.141 279.257 210.514 292.87 215.833C296.527 217.334 300.728 218.123 305.035 218.249C309.423 218.404 314.253 217.732 319.414 216.748C330.384 214.597 342.4 210.439 356.036 207.763C370.647 204.993 385.574 200.54 401.148 196.909C487.832 176.041 549.971 148.528 673.656 189.896C797.343 231.266 830.456 290.637 887.11 359.447C897.36 371.715 906.601 384.252 916.602 395.253C925.879 405.593 932.972 416.143 940.439 424.46C943.968 428.351 947.422 431.794 951.019 434.309C954.534 436.799 958.32 438.681 962.144 439.683C976.216 443.624 992.496 441.628 1005.46 434.639C1011.89 431.17 1017.65 426.52 1022.14 421.035C1026.79 415.398 1030.24 408.703 1032.11 401.733C1033.75 395.777 1034.1 389.355 1033.33 383.112C1032.56 376.869 1030.66 370.838 1027.76 365.475C1024.82 360.023 1020.67 355.094 1015.9 351.239C1011.12 347.384 1005.72 344.585 1000.15 343.217C995.245 341.889 989.99 341.614 984.885 342.269C979.78 342.923 974.82 344.478 970.487 346.818C965.989 349.243 961.979 352.682 958.848 356.598C955.716 360.514 953.449 364.944 952.403 369.416C951.376 373.304 951.236 377.459 951.773 381.475C952.311 385.492 953.552 389.376 955.365 392.742C957.293 396.331 960.011 399.498 963.106 401.942C966.201 404.385 969.654 406.085 973.091 406.834C976.018 407.581 979.177 407.685 982.164 407.265C985.152 406.844 987.966 405.876 990.43 404.571C993.202 403.11 995.662 400.983 997.468 398.661C999.274 396.339 1000.45 393.862 1000.95 391.412C1001.48 389.333 1001.49 387.095 1001.18 385.029C1000.87 382.962 1000.24 381.047 999.458 379.395C998.411 377.252 997.206 375.549 995.979 374.376C995.433 373.81 994.839 373.325 994.268 372.901C992.818 371.824 991.452 371.17 990.591 370.569C989.728 369.97 989.313 369.412 989.541 368.766C989.768 368.121 990.667 367.386 992.322 366.892C993.151 366.646 994.165 366.476 995.373 366.46C996.581 366.445 997.957 366.599 999.488 367.035C1000.91 367.451 1002.42 368.102 1003.93 369.022C1005.45 369.943 1006.99 371.133 1008.39 372.616C1010.48 374.794 1012.43 377.567 1013.86 380.958C1015.3 384.349 1016.2 388.345 1016.12 392.78C1015.96 397.627 1014.73 402.739 1012.21 407.598C1009.69 412.458 1005.89 417.101 1000.81 420.71C996.655 423.678 991.794 425.981 986.452 427.377C981.111 428.774 975.273 429.254 969.265 428.44C962.459 427.427 955.767 424.902 949.714 420.999C943.661 417.096 938.255 411.796 934.138 405.273C930.433 399.41 927.755 392.768 926.364 385.695C924.974 378.623 924.896 371.11 926.346 363.604C928.1 355.091 931.637 346.991 936.755 339.842C941.872 332.692 948.534 326.499 956.396 321.872C963.869 317.473 972.193 314.507 980.864 313.13C989.534 311.751 998.573 311.984 1007.42 314C1009.96 314.61 1012.46 315.331 1014.9 316.201L1014.9 316.201Z" fill="black"/>
<path d="M3.00582 618C68.1728 658.905 167.594 685 279.003 685C390.41 685 489.832 658.905 555 618H3H3.00582Z" fill="black"/>
<path d="M555 618L279 222" stroke="black" stroke-width="5.4"/>
<path d="M3 618L276 237" stroke="black" stroke-width="5.4"/>
<path d="M720.006 843C785.173 883.905 884.594 910 996.003 910C1107.41 910 1206.83 883.905 1272 843H720H720.006Z" fill="black"/>
<path d="M1272 843L996 447" stroke="black" stroke-width="5.4"/>
<path d="M720 843L993 462" stroke="black" stroke-width="5.4"/>
<path d="M645.606 60C655.592 86.0527 691.213 141.201 691.213 166.38C691.213 191.561 670.795 205.893 645.606 205.893C620.418 205.893 600 191.56 600 166.38C600 141.201 635.62 86.0527 645.606 60Z" fill="black"/>
<path d="M649.708 223.032H643.194C631.2 223.032 621.476 243.982 621.476 269.824V340.009C621.476 365.851 631.2 386.8 643.194 386.8H649.708C661.703 386.8 671.426 365.851 671.426 340.009V269.824C671.426 243.982 661.703 223.032 649.708 223.032Z" fill="black"/>
<path d="M649.718 338.531H643.202C631.171 338.531 621.484 349.355 621.484 362.8V925.815C621.484 939.26 631.17 950.083 643.202 950.083H649.718C661.749 950.083 671.435 939.26 671.435 925.815V362.8C671.435 349.355 661.75 338.531 649.718 338.531Z" fill="black"/>
<path d="M646.449 899.326C701.15 956.677 752.907 1024.78 895.249 1034.34C901.391 1043.44 895.249 1068.06 895.249 1068.06H397.664C397.664 1068.06 391.522 1043.45 397.664 1034.34C540.001 1024.78 591.751 956.677 646.464 899.326H646.449Z" fill="black"/>
</svg>
